<svg width="539" height="455" viewBox="0 0 539 455" fill="none" xmlns="http://www.w3.org/2000/svg">
<g clip-path="url(#clip0_39:68)">
<path d="M438.973 219.6C438.973 225.993 438.704 232.322 438.167 238.586C437.744 243.475 437.167 248.321 436.435 253.123C435.658 258.207 434.705 263.23 433.577 268.192V268.197C432.84 271.463 432.03 274.702 431.148 277.914C428.588 287.251 425.405 296.407 421.62 305.318C420.797 307.256 419.947 309.182 419.071 311.094C415.754 318.335 412.041 325.387 407.948 332.219C396.468 351.403 382.139 368.729 365.451 383.602C363.645 385.209 361.814 386.789 359.958 388.342C320.557 421.274 270.827 439.278 219.486 439.199C98.2659 439.199 0 340.883 0 219.6C0 98.3165 98.2659 -0.000155255 219.486 -0.000155255C269.059 -0.0783597 317.185 16.71 355.963 47.6084C357.78 49.0495 359.575 50.523 361.347 52.029C369.994 59.366 378.063 67.3577 385.485 75.9333H385.49C420.056 115.799 439.051 166.824 438.973 219.6Z" fill="#F2F2F2"/>
<path d="M64.7921 257.533C43.8835 245.082 28.1024 221.813 30.1512 197.556C49.2669 215.861 74.2377 226.811 100.646 228.468C110.833 229.071 122.226 228.679 129.724 235.604C134.39 239.913 136.562 246.4 136.918 252.743C137.274 259.086 136.005 265.395 134.741 271.62L135.176 273.146C110.844 273.237 85.7008 269.984 64.7921 257.533Z" fill="#E6E6E6"/>
<path d="M30.6611 197.53C39.0387 215.854 52.974 231.071 70.4878 241.02C74.2528 243.128 78.2556 244.94 82.5093 245.78C86.6617 246.567 90.9491 246.227 94.9259 244.795C98.6607 243.535 102.335 241.814 106.311 241.484C110.502 241.136 114.382 242.754 117.43 245.587C121.159 249.054 123.422 253.654 125.478 258.23C127.76 263.311 130.051 268.625 134.428 272.279C134.958 272.721 134.241 273.519 133.711 273.077C126.096 266.72 124.853 256.074 118.766 248.587C115.926 245.093 112.016 242.435 107.372 242.505C103.31 242.567 99.5197 244.339 95.7491 245.647C91.79 247.021 87.8239 247.667 83.6442 247.062C79.3685 246.444 75.2865 244.786 71.4841 242.783C62.8955 238.176 55.0841 232.247 48.3363 225.213C40.5905 217.228 34.2671 207.976 29.6396 197.857C29.3534 197.23 30.3768 196.907 30.6611 197.53H30.6611Z" fill="white"/>
<path d="M64.66 238.149C62.5927 240.862 59.6288 242.752 56.2975 243.48C52.9662 244.209 49.4844 243.729 46.474 242.127C45.866 241.8 46.3443 240.84 46.9532 241.167C49.7537 242.664 52.997 243.111 56.0977 242.426C59.1984 241.741 61.9523 239.969 63.8623 237.431C64.278 236.88 65.0733 237.601 64.66 238.149L64.66 238.149Z" fill="white"/>
<path d="M93.1162 245.684C92.2462 238.764 88.8013 232.427 83.4685 227.935C82.9398 227.491 83.6572 226.693 84.1853 227.137C89.726 231.821 93.2975 238.424 94.1871 245.627C94.2714 246.313 93.2001 246.367 93.1162 245.684V245.684Z" fill="white"/>
<path d="M41.9202 216.724C42.9387 215.841 43.7221 214.719 44.1999 213.458C44.6777 212.197 44.8351 210.837 44.6578 209.5C44.5648 208.815 45.6363 208.763 45.7287 209.443C45.9176 210.921 45.742 212.423 45.2172 213.817C44.6924 215.211 43.8342 216.455 42.7179 217.441C42.6204 217.543 42.4879 217.604 42.3472 217.611C42.2066 217.619 42.0684 217.573 41.9606 217.482C41.8555 217.386 41.7923 217.253 41.7847 217.111C41.7771 216.969 41.8258 216.83 41.9202 216.724V216.724Z" fill="white"/>
<path d="M97.831 150.56C97.9012 150.986 97.9714 151.413 98.0498 151.843C99.0234 157.568 100.46 163.204 102.346 168.696C102.485 169.123 102.633 169.554 102.784 169.976C107.468 183.159 114.559 195.358 123.694 205.951C127.333 210.164 131.287 214.093 135.522 217.705C141.371 222.692 148.109 227.635 151.859 234.075C152.258 234.743 152.615 235.434 152.929 236.146L137.002 272.497C136.924 272.561 136.855 272.629 136.777 272.694L136.207 274.175C135.976 274.004 135.739 273.821 135.508 273.65C135.373 273.552 135.242 273.445 135.108 273.346C135.019 273.278 134.93 273.209 134.846 273.153C134.817 273.13 134.787 273.107 134.766 273.088C134.682 273.031 134.61 272.97 134.535 272.917C133.211 271.901 131.892 270.875 130.578 269.837C130.569 269.833 130.569 269.833 130.564 269.821C120.571 261.888 111.151 253.051 103.372 243.064C103.138 242.763 102.896 242.46 102.669 242.142C99.1873 237.621 96.0808 232.823 93.3806 227.796C91.9108 225.038 90.5815 222.208 89.3978 219.315C86.3537 211.837 84.5042 203.925 83.9173 195.872C82.7496 179.817 86.7269 163.566 97.0344 151.476C97.2983 151.167 97.5588 150.866 97.831 150.56Z" fill="#E6E6E6"/>
<path d="M98.2562 150.844C93.9186 170.522 95.8881 191.066 103.885 209.56C105.622 213.511 107.728 217.368 110.619 220.602C113.461 223.731 117.089 226.043 121.126 227.295C124.866 228.539 128.836 229.377 132.209 231.509C135.764 233.756 137.888 237.385 138.617 241.483C139.509 246.498 138.547 251.534 137.435 256.426C136.2 261.858 134.832 267.48 136.127 273.034C136.284 273.707 135.232 273.911 135.075 273.239C132.82 263.577 138.234 254.328 137.879 244.683C137.714 240.183 136.192 235.706 132.441 232.964C129.161 230.566 125.068 229.698 121.27 228.471C117.282 227.184 113.727 225.31 110.753 222.309C107.712 219.24 105.45 215.457 103.62 211.567C99.5342 202.716 96.8651 193.276 95.7102 183.595C94.3308 172.553 94.8495 161.357 97.2438 150.49C97.3922 149.818 98.4037 150.176 98.2562 150.844Z" fill="white"/>
<path d="M100.96 203.756C97.6764 204.677 94.1726 204.401 91.0743 202.976C87.9759 201.551 85.4846 199.071 84.0453 195.978C83.7563 195.351 84.7162 194.872 85.0057 195.5C86.3406 198.382 88.6615 200.693 91.5494 202.014C94.4373 203.335 97.702 203.579 100.754 202.703C101.418 202.514 101.619 203.568 100.96 203.756H100.96Z" fill="white"/>
<path d="M119.146 226.914C122.616 220.865 123.679 213.73 122.123 206.932C121.969 206.258 123.022 206.053 123.176 206.726C124.781 213.804 123.66 221.227 120.036 227.514C119.69 228.113 118.802 227.51 119.146 226.914Z" fill="white"/>
<path d="M95.6958 172.952C97.0404 172.861 98.3412 172.436 99.4815 171.718C100.622 170.999 101.566 170.008 102.229 168.834C102.567 168.231 103.454 168.834 103.118 169.433C102.38 170.727 101.336 171.82 100.078 172.617C98.8197 173.414 97.3857 173.891 95.9011 174.005C95.7621 174.028 95.6197 173.997 95.5028 173.918C95.386 173.839 95.3035 173.719 95.2722 173.582C95.2457 173.442 95.2753 173.298 95.3546 173.18C95.4339 173.062 95.5565 172.98 95.6958 172.952V172.952Z" fill="white"/>
<path d="M152.04 50.8968L178.904 365.538L125.176 369.579V54.8999C131.578 50.6614 140.768 49.9982 152.04 50.8968Z" fill="#CCCCCC"/>
<path d="M284.646 50.8968L257.782 365.538L311.511 369.579V54.8999C305.108 50.6614 295.918 49.9982 284.646 50.8968Z" fill="#CCCCCC"/>
<path d="M303.466 382.584H132.649C129.91 382.581 127.284 381.491 125.347 379.553C123.41 377.615 122.321 374.988 122.318 372.247V59.5177C122.321 56.7772 123.41 54.1499 125.347 52.2121C127.284 50.2744 129.91 49.1843 132.649 49.1812H303.466C306.205 49.1843 308.831 50.2744 310.768 52.2121C312.704 54.1499 313.794 56.7772 313.797 59.5177V372.247C313.794 374.988 312.704 377.615 310.768 379.553C308.831 381.491 306.205 382.581 303.466 382.584ZM132.649 52.6124C130.819 52.6145 129.065 53.3426 127.771 54.6372C126.477 55.9317 125.749 57.6869 125.747 59.5177V372.247C125.749 374.078 126.477 375.833 127.771 377.128C129.065 378.422 130.819 379.151 132.649 379.153H303.466C305.296 379.151 307.05 378.422 308.344 377.128C309.638 375.833 310.365 374.078 310.367 372.247V59.5177C310.365 57.6869 309.638 55.9317 308.344 54.6372C307.05 53.3427 305.296 52.6145 303.466 52.6125L132.649 52.6124Z" fill="#CCCCCC"/>
<path d="M312.082 101.222H124.033V104.653H312.082V101.222Z" fill="#CCCCCC"/>
<path d="M312.082 158.409H124.033V161.84H312.082V158.409Z" fill="#CCCCCC"/>
<path d="M185.057 50.8968H181.627V207.018H185.057V50.8968Z" fill="#CCCCCC"/>
<path d="M254.488 50.8968H251.058V207.018H254.488V50.8968Z" fill="#CCCCCC"/>
<path d="M333.517 392.02H108.314C104.221 392.02 100.296 390.393 97.4017 387.497C94.5075 384.602 92.8816 380.674 92.8816 376.579C92.8816 372.484 94.5075 368.557 97.4017 365.661C100.296 362.765 104.221 361.139 108.314 361.139H333.517C337.61 361.139 341.535 362.765 344.429 365.661C347.323 368.557 348.949 372.484 348.949 376.579C348.949 380.674 347.323 384.602 344.429 387.497C341.535 390.393 337.61 392.02 333.517 392.02Z" fill="#CCCCCC"/>
<path d="M312.082 199.012H125.176V210.45H312.082V199.012Z" fill="#CCCCCC"/>
<path d="M185.589 235.412L185.352 235.298C172.61 229.14 155.925 229.145 131.25 235.318L130.986 235.384L130.907 235.124C128.297 226.56 125.34 216.861 130.895 212.09C130.973 198.087 143.249 186.717 158.328 186.717C173.404 186.717 185.679 198.081 185.761 212.08C194.025 218.401 190.087 227.743 185.722 235.185L185.589 235.412Z" fill="#2F2E41"/>
<path d="M263.902 205.429C263.673 206.563 263.199 207.634 262.512 208.566C261.825 209.497 260.943 210.266 259.927 210.82C258.911 211.373 257.786 211.696 256.631 211.768C255.476 211.839 254.32 211.656 253.244 211.232L208.216 256.504L204.199 242.447L248.919 200.405C249.752 198.643 251.201 197.248 252.993 196.484C254.784 195.72 256.794 195.64 258.641 196.259C260.488 196.878 262.043 198.154 263.013 199.844C263.982 201.534 264.299 203.521 263.902 205.429L263.902 205.429Z" fill="#FFB6B6"/>
<path d="M152.616 249.013C152.616 249.013 148.531 258.275 158.611 263.987C168.691 269.699 203.922 261.807 209.638 260.706C215.355 259.604 236.706 227.636 236.706 227.636L233.687 211.958L205.371 236.551L152.616 249.013Z" fill="#6C63FF"/>
<path d="M145.181 300.234L145.753 311.1C145.753 311.1 144.066 320.725 145.453 322.802C146.83 324.868 184.406 325.129 184.406 325.129C184.406 325.129 186.889 311.738 189.028 300.017L145.181 300.234Z" fill="#FFB6B6"/>
<path d="M253.218 443.901L261.073 442.313L258.825 410.566L247.231 412.909L253.218 443.901Z" fill="#FFB6B6"/>
<path d="M264.47 402.587L271.774 399.301L262.3 368.926L251.521 373.775L264.47 402.587Z" fill="#FFB6B6"/>
<path d="M270.832 385.472L257.081 393.262L223.168 338.738C199.361 354.786 176.08 362.471 152.612 366.571C144.677 367.985 136.587 367.269 135.064 359.189C134.993 358.811 134.936 358.431 134.894 358.049C133.957 349.223 144.93 337.91 146.324 327.112L176.355 325.308L180.059 330.059L214.789 308.696C221.773 304.4 230.959 306.723 235.306 313.886C235.536 314.264 235.749 314.652 235.946 315.049L270.832 385.472Z" fill="#2F2E41"/>
<path d="M262.415 422.15L246.681 423.613L218.151 365.236C189.861 370.104 163.171 371.663 140.086 365.774C132.27 363.808 127.492 355.733 129.414 347.739C129.504 347.365 129.608 346.995 129.726 346.63C132.489 338.196 139.721 332.228 145.419 322.952L187.04 323.584L182.391 339.632L222.823 334.398C230.954 333.345 238.379 339.233 239.409 347.55C239.463 347.989 239.498 348.43 239.515 348.873L262.415 422.15Z" fill="#2F2E41"/>
<path d="M161.433 227.113C170.766 227.113 178.333 219.542 178.333 210.204C178.333 200.865 170.766 193.295 161.433 193.295C152.099 193.295 144.532 200.865 144.532 210.204C144.532 219.542 152.099 227.113 161.433 227.113Z" fill="#FFB6B6"/>
<path d="M151.525 233.217L167.021 235.041C167.674 235.118 168.287 235.397 168.775 235.839C169.262 236.281 169.6 236.864 169.74 237.507L172.205 248.79L187.567 266.89C187.567 266.89 193.083 277.239 191.015 288.967C188.946 300.696 188.037 309.41 188.037 309.41C188.037 309.41 146.828 324.869 145.449 322.799C144.07 320.73 143.623 311.329 143.623 311.329L138.106 249.927C138.106 249.927 144.312 239.578 147.76 239.578C149.985 239.503 149.7 234.493 151.525 233.217Z" fill="#6C63FF"/>
<path d="M188.456 313.186C190.629 313.186 192.391 311.071 192.391 308.462C192.391 305.853 190.629 303.738 188.456 303.738C186.283 303.738 184.521 305.853 184.521 308.462C184.521 311.071 186.283 313.186 188.456 313.186Z" fill="#6C63FF"/>
<path d="M249.319 435.727L261.296 429.721L263.553 434.99L278.698 438.053C279.446 438.204 280.126 438.591 280.639 439.156C281.152 439.722 281.471 440.436 281.549 441.196C281.628 441.955 281.461 442.72 281.074 443.378C280.688 444.036 280.101 444.553 279.399 444.854L264.766 451.13L260.011 447L261.259 452.634L255.742 455L249.319 435.727Z" fill="#2F2E41"/>
<path d="M261.043 400.06L272.912 393.844L275.261 399.073L290.458 401.869C291.208 402.007 291.895 402.381 292.418 402.937C292.941 403.494 293.272 404.202 293.364 404.96C293.456 405.718 293.303 406.486 292.927 407.151C292.552 407.816 291.974 408.343 291.278 408.656L276.758 415.188L271.931 411.143L273.278 416.754L267.803 419.217L261.043 400.06Z" fill="#2F2E41"/>
<path d="M151.777 204.9C147.312 204.907 142.954 203.532 139.302 200.962L139.18 200.877V200.728C139.185 196.407 140.902 192.264 143.956 189.208C147.01 186.153 151.151 184.434 155.47 184.429H162.329C166.648 184.434 170.788 186.153 173.842 189.208C176.896 192.264 178.614 196.407 178.619 200.728C178.614 201.717 178.224 202.665 177.531 203.37C176.838 204.076 175.897 204.482 174.909 204.504L152.162 204.896C152.034 204.899 151.905 204.9 151.777 204.9Z" fill="#2F2E41"/>
<path d="M179.762 197.598C181.949 196.334 182.314 192.871 180.578 189.862C178.842 186.853 175.661 185.439 173.474 186.702C171.287 187.965 170.922 191.428 172.658 194.437C174.394 197.446 177.575 198.861 179.762 197.598Z" fill="#2F2E41"/>
<path d="M145.557 194.241C148.012 191.784 148.555 188.344 146.769 186.558C144.984 184.771 141.546 185.314 139.09 187.771C136.635 190.228 136.092 193.667 137.878 195.454C139.663 197.241 143.101 196.698 145.557 194.241Z" fill="#2F2E41"/>
<path d="M295.129 348.843H278.26C277.879 348.842 277.503 348.925 277.158 349.085C276.812 349.244 276.506 349.478 276.26 349.768C275.638 349.654 274.997 349.689 274.391 349.87C273.785 350.051 273.231 350.374 272.773 350.811C272.316 351.248 271.969 351.788 271.76 352.385C271.551 352.983 271.488 353.621 271.573 354.248C271.659 354.875 271.893 355.473 272.254 355.993C272.616 356.512 273.095 356.938 273.653 357.236C274.212 357.534 274.832 357.695 275.465 357.707C276.097 357.718 276.724 357.579 277.292 357.302L278.691 361.85C278.857 362.389 279.191 362.861 279.644 363.196C280.098 363.531 280.647 363.712 281.21 363.712H292.178C292.742 363.712 293.29 363.531 293.744 363.196C294.197 362.861 294.531 362.389 294.697 361.85L297.648 352.256C297.769 351.862 297.796 351.444 297.727 351.037C297.658 350.631 297.494 350.246 297.249 349.914C297.004 349.582 296.684 349.312 296.316 349.126C295.948 348.94 295.541 348.843 295.129 348.843ZM275.548 356.564C274.79 356.564 274.063 356.262 273.527 355.726C272.991 355.19 272.69 354.463 272.69 353.704C272.69 352.946 272.991 352.219 273.527 351.682C274.063 351.146 274.79 350.845 275.548 350.845C275.6 350.845 275.649 350.857 275.701 350.86C275.587 351.321 275.601 351.803 275.741 352.256L276.948 356.182C276.522 356.429 276.04 356.56 275.548 356.564Z" fill="#3F3D56"/>
<path d="M219.802 336.429C218.65 336.536 217.489 336.389 216.4 335.998C215.311 335.607 214.322 334.981 213.5 334.166C212.679 333.351 212.046 332.366 211.647 331.279C211.248 330.193 211.091 329.032 211.188 327.879L154.923 297.712L167.229 289.828L220.314 320.628C222.239 320.92 223.991 321.909 225.237 323.407C226.482 324.905 227.136 326.808 227.073 328.756C227.01 330.704 226.235 332.561 224.895 333.975C223.555 335.389 221.743 336.262 219.802 336.429Z" fill="#FFB6B6"/>
<path d="M146.143 242.273C146.143 242.273 136.102 241.015 133.525 252.315C130.948 263.615 148.613 295.118 151.308 300.28C154.003 305.443 190.737 316.735 190.737 316.735L204.882 309.343L173.21 289.26L146.143 242.273Z" fill="#6C63FF"/>
<path d="M216.914 195.581H220.344C222.011 195.581 223.611 196.244 224.79 197.423C225.969 198.603 226.631 200.203 226.631 201.872H210.627C210.627 200.203 211.289 198.603 212.468 197.423C213.648 196.244 215.247 195.581 216.914 195.581Z" fill="#CCCCCC"/>
<path d="M108.167 78.2127C126.931 78.2127 142.142 62.9934 142.142 44.2194C142.142 25.4454 126.931 10.2261 108.167 10.2261C89.4024 10.2261 74.1909 25.4454 74.1909 44.2194C74.1909 62.9934 89.4024 78.2127 108.167 78.2127Z" fill="#FF6584"/>
<path d="M212.192 42.4479C203.2 33.0106 192.758 24.4012 180.395 19.8518C176.952 18.5791 173.381 17.6814 169.745 17.1741C169.716 17.1701 169.688 17.176 169.659 17.1736C169.6 17.1584 169.54 17.1466 169.48 17.1384C164.395 16.4902 159.233 16.802 154.263 18.0575C151.832 18.6677 149.461 19.4942 147.178 20.5269C144.886 21.6454 142.666 22.9044 140.53 24.2966C136.008 27.0049 131.029 28.8632 125.839 29.78C123.234 30.2493 120.595 30.5084 117.948 30.5549C115.652 30.6009 113.486 30.6808 111.31 31.5108C108.986 32.3853 106.898 33.7911 105.214 35.6162C103.529 37.4413 102.294 39.635 101.607 42.0225C101.554 42.2351 101.57 42.459 101.653 42.6619C101.735 42.8649 101.88 43.0363 102.067 43.1516C102.655 43.5733 103.229 44.0518 103.847 44.4275C104.397 44.6795 104.985 44.8398 105.587 44.9022C106.57 45.1098 107.554 45.3113 108.54 45.5067C112.171 46.2265 115.817 46.8637 119.478 47.4182C126.887 48.5403 134.335 49.3308 141.824 49.7895C156.826 50.6986 171.879 50.246 186.799 48.4371C195.184 47.421 203.512 45.9797 211.751 44.119C211.918 44.0702 212.069 43.9791 212.191 43.8546C212.312 43.73 212.399 43.5762 212.443 43.4081C212.488 43.2399 212.488 43.0632 212.444 42.895C212.4 42.7267 212.313 42.5728 212.192 42.4479Z" fill="#E6E6E6"/>
<path d="M109.779 65.1761C106.336 63.9035 102.765 63.0057 99.1291 62.4984C99.0999 62.4944 99.0722 62.5003 99.0431 62.498C98.984 62.4827 98.924 62.471 98.8635 62.4627C93.7784 61.8146 88.617 62.1263 83.6468 63.3818C81.2163 63.9921 78.8451 64.8185 76.5617 65.8513C74.2702 66.9698 72.0499 68.2287 69.9135 69.6209C65.3914 72.3292 60.4125 74.1876 55.2225 75.1044C52.6173 75.5736 49.9787 75.8327 47.3321 75.8792C45.0356 75.9253 42.8699 76.0051 40.6941 76.8352C38.37 77.7096 36.2822 79.1154 34.5976 80.9405C32.9129 82.7656 31.6779 84.9593 30.9911 87.3468C30.9382 87.5594 30.9541 87.7833 31.0366 87.9862C31.1192 88.1892 31.264 88.3606 31.4503 88.4758C32.0389 88.8976 32.6127 89.3761 33.231 89.7518C33.7811 90.0038 34.3687 90.1641 34.9704 90.2265C35.9536 90.4341 36.938 90.6355 37.9236 90.831C41.5547 91.5508 45.2009 92.188 48.8622 92.7425C56.2707 93.8646 63.7192 94.655 71.2077 95.1138C86.2093 96.0229 101.262 95.5703 116.182 93.7614C124.568 92.7452 132.896 91.304 141.135 89.4433C141.302 89.3945 141.453 89.3034 141.574 89.1788C141.696 89.0543 141.783 88.9005 141.827 88.7324C141.871 88.5642 141.872 88.3875 141.828 88.2193C141.784 88.0511 141.697 87.8971 141.576 87.7722C132.584 78.3349 122.141 69.7256 109.779 65.1761Z" fill="#E6E6E6"/>
<path d="M354.793 318.591L328.665 284.249L308.049 295.912L351.735 347.816L354.793 318.591Z" fill="#3F3D56"/>
<path d="M414.978 262.765C415.558 277.157 417.787 291.434 421.62 305.318C420.797 307.257 419.947 309.182 419.071 311.094C415.754 318.335 412.041 325.387 407.948 332.219C396.468 351.403 382.139 368.729 365.451 383.602C363.644 385.209 361.813 386.789 359.958 388.343C349.378 373.748 343.668 357.644 341.41 341.072C341.124 338.967 340.89 336.84 340.713 334.724V334.712C340.279 329.57 340.14 324.407 340.295 319.249C340.301 318.837 340.313 318.42 340.33 318.002C340.53 312.489 341.027 306.965 341.776 301.492V301.486C341.862 300.857 341.947 300.228 342.044 299.599C342.319 297.712 342.627 295.825 342.965 293.949C344.927 283.131 347.667 272.468 351.161 262.044V262.038C351.258 261.735 351.356 261.438 351.464 261.141C351.841 260.008 352.224 258.887 352.619 257.767C352.643 257.679 352.674 257.593 352.71 257.509C353.219 256.045 353.739 254.593 354.271 253.152C354.413 252.751 354.562 252.351 354.716 251.951C355.317 250.344 355.928 248.748 356.551 247.176C356.746 246.672 356.946 246.169 357.146 245.671C357.3 245.288 357.449 244.905 357.609 244.528V244.522C358.517 242.275 359.438 240.071 360.369 237.911C362.981 231.838 365.668 226.125 368.286 220.858L368.291 220.852C379.157 199.047 389.034 184.887 389.034 184.887L426.124 196.896C421.7 204.748 418.276 216.329 416.401 229.991C414.957 240.85 414.481 251.816 414.978 262.759L414.978 262.765Z" fill="#3F3D56"/>
<path d="M353.333 259.271C353.116 258.762 352.87 258.264 352.619 257.767C351.315 255.241 349.637 252.927 347.64 250.904C347.343 250.601 347.035 250.298 346.714 250.012C343.272 246.839 339.085 244.586 334.541 243.46C329.998 242.335 325.244 242.374 320.719 243.573L320.696 243.584L320.525 243.63L320.565 243.824C320.736 244.73 320.985 245.62 321.308 246.484C321.394 246.718 321.491 246.941 321.588 247.164C321.628 247.267 321.679 247.359 321.725 247.461C321.725 247.461 321.719 247.467 321.731 247.467C321.731 247.473 321.736 247.479 321.736 247.484C321.845 247.696 321.948 247.913 322.062 248.119C321.828 247.896 321.605 247.667 321.388 247.433C321.176 247.216 320.982 246.987 320.788 246.758C320.121 245.981 319.519 245.151 318.987 244.276L318.896 244.122L318.736 244.185C316.579 244.932 314.521 245.941 312.608 247.187L312.403 247.324C310.942 248.284 309.296 248.925 307.572 249.207C305.848 249.488 304.084 249.404 302.394 248.96C299.73 248.273 296.953 248.147 294.238 248.591C291.524 249.035 288.931 250.039 286.624 251.539C285.097 252.535 283.715 253.74 282.52 255.119C282.417 255.239 282.315 255.365 282.212 255.485C281.995 255.748 281.789 256.017 281.589 256.291C279.44 259.164 278.121 262.573 277.776 266.145L277.765 266.276L277.873 266.351C279.807 267.677 281.995 268.588 284.298 269.027C282.851 269.229 281.386 269.265 279.931 269.136H279.925C279.265 269.081 278.609 268.989 277.959 268.861L277.839 268.838H277.833L277.685 268.81L277.708 269.084C277.878 272.578 278.977 275.964 280.891 278.892L280.949 278.972C280.97 279.001 280.989 279.032 281.006 279.063C281.817 280.304 282.491 281.629 283.018 283.015C284.354 286.459 284.648 290.219 283.864 293.829C282.976 297.69 283.271 301.729 284.71 305.419C286.15 309.11 288.667 312.281 291.934 314.519C294.804 316.495 298.148 317.669 301.623 317.922C302.097 317.962 302.577 317.985 303.057 317.985C305.806 317.993 308.526 317.427 311.042 316.321L311.134 316.287L311.157 316.184C311.64 314.621 312.32 313.126 313.18 311.734C312.899 312.831 312.756 313.959 312.757 315.091V315.469L313.083 315.28C313.363 315.114 313.649 314.937 313.906 314.771C315.45 313.762 316.848 312.546 318.061 311.157C318.536 310.608 319.016 310.076 319.519 309.544L319.524 309.538C320.502 308.498 321.536 307.48 322.611 306.508C324.897 304.453 327.344 302.585 329.927 300.92C332.509 299.262 335.208 297.794 338.004 296.528H338.009C338.324 296.38 338.644 296.237 338.958 296.099C340.35 295.493 341.69 294.774 342.965 293.949C343.011 293.921 343.051 293.898 343.091 293.869C348.616 290.249 352.678 284.785 354.554 278.449C356.43 272.114 355.997 265.317 353.333 259.271L353.333 259.271Z" fill="#6C63FF"/>
<path opacity="0.15" d="M284.805 301.949C284.649 302.644 284.531 303.347 284.451 304.055C283.387 300.691 283.233 297.104 284.004 293.661C284.123 293.134 284.212 292.601 284.282 292.065C285.338 295.253 285.519 298.667 284.805 301.949Z" fill="black"/>
<path opacity="0.15" d="M285.237 277.142C283.544 277.377 281.828 277.385 280.132 277.166C279.688 276.329 279.305 275.46 278.985 274.567C280.873 275.842 283 276.718 285.237 277.142Z" fill="black"/>
<path opacity="0.15" d="M279.996 268.952C279.371 270.551 278.956 272.224 278.761 273.93C278.239 272.305 277.932 270.62 277.845 268.916L277.831 268.641L278.101 268.693C278.728 268.811 279.361 268.897 279.996 268.952Z" fill="black"/>
<path opacity="0.15" d="M286.772 251.369C289.075 249.867 291.667 248.862 294.38 248.417C297.094 247.972 299.87 248.098 302.533 248.787C304.223 249.234 305.988 249.319 307.713 249.038C309.439 248.757 311.086 248.115 312.546 247.154L312.753 247.018C314.664 245.768 316.72 244.758 318.877 244.008L319.041 243.951L319.131 244.1C319.984 245.51 321.017 246.803 322.204 247.946C321.483 246.602 320.978 245.152 320.708 243.651L320.669 243.453L320.864 243.401C325.108 242.278 329.557 242.174 333.849 243.098C338.14 244.022 342.153 245.948 345.559 248.719C348.964 251.491 351.667 255.028 353.447 259.043C355.226 263.059 356.031 267.438 355.797 271.824C354.897 268.248 353.296 264.887 351.088 261.934C348.88 258.982 346.108 256.497 342.934 254.625C339.759 252.752 336.244 251.528 332.593 251.024C328.942 250.52 325.228 250.747 321.665 251.689L321.47 251.741L321.509 251.939C321.779 253.441 322.284 254.89 323.005 256.234C321.818 255.091 320.785 253.798 319.932 252.388L319.842 252.239L319.678 252.296C317.521 253.046 315.465 254.056 313.554 255.306L313.347 255.442C311.887 256.403 310.24 257.045 308.514 257.326C306.789 257.607 305.024 257.522 303.333 257.075C298.909 255.926 294.223 256.348 290.074 258.27C285.926 260.192 282.572 263.493 280.585 267.612C279.7 267.187 278.842 266.707 278.017 266.177L277.905 266.106L277.918 265.974C278.202 263.03 279.146 260.189 280.679 257.66C282.211 255.132 284.294 252.982 286.772 251.369Z" fill="black"/>
<path d="M499.263 105.248L498.72 104.887L498.326 105.402C495.273 109.247 492.845 113.549 491.13 118.149C491.366 112.849 492.292 107.603 493.885 102.543L494.056 102.011L493.564 101.731C487.169 98.1075 480.355 95.2805 473.273 93.3127L472.502 93.1068C467.074 91.6168 462.022 88.999 457.674 85.4241C453.326 81.8492 449.78 77.3975 447.267 72.3592C441.427 60.7962 432.202 51.2901 420.822 45.1093C409.442 38.9285 396.448 36.3669 383.575 37.7665H383.57C383.433 37.778 383.29 37.7951 383.153 37.8123C382.918 37.8352 382.69 37.8638 382.461 37.8923C381.992 37.9553 381.535 38.0182 381.078 38.0868C380.689 38.144 380.295 38.2069 379.906 38.2755C379.7 38.3041 379.5 38.3384 379.3 38.3784C379.1 38.4128 378.894 38.4471 378.694 38.4871H378.688C374.851 39.2134 371.089 40.2951 367.451 41.7182H367.446V41.7239L366.525 42.0842C365.576 42.473 364.635 42.8848 363.702 43.3194C363.49 43.4166 363.284 43.5196 363.073 43.6168C363.016 43.6454 362.953 43.674 362.896 43.7083C362.296 43.9942 361.701 44.2916 361.112 44.6061C361.027 44.6462 360.941 44.6919 360.855 44.7377L360.306 45.0293C359.1 45.6812 357.915 46.3732 356.751 47.1052C356.654 47.1624 356.563 47.2196 356.465 47.2825C356.363 47.3511 356.254 47.4197 356.151 47.4884C356.088 47.5227 356.025 47.5684 355.963 47.6085C355.785 47.7171 355.614 47.8315 355.442 47.9516C355.099 48.1746 354.756 48.4034 354.419 48.6378C354.071 48.8723 353.728 49.1182 353.385 49.3641L353.042 49.61L353.105 50.0332C353.162 50.382 353.213 50.7309 353.276 51.074C353.333 51.4171 353.39 51.7546 353.453 52.092C353.55 52.6581 353.659 53.2185 353.768 53.7618C353.842 54.1221 353.911 54.4767 353.991 54.8255C354.065 55.1858 354.145 55.5461 354.231 55.9064C354.396 56.6498 354.574 57.3704 354.762 58.0795C354.854 58.434 354.951 58.7886 355.054 59.1374C355.111 59.349 355.168 59.5606 355.231 59.7665C355.277 59.9095 355.322 60.0524 355.368 60.1954C355.38 60.2412 355.391 60.2926 355.408 60.3441C355.421 60.3926 355.436 60.4403 355.454 60.4871C355.517 60.6987 355.58 60.9046 355.642 61.1047C355.677 61.2134 355.711 61.322 355.751 61.4249C355.831 61.6708 355.917 61.9225 356.003 62.1627C356.094 62.4372 356.191 62.7117 356.288 62.9804C356.311 63.0491 356.334 63.112 356.357 63.1806C356.374 63.2321 356.391 63.2835 356.414 63.335C356.437 63.3922 356.46 63.4551 356.483 63.5123C356.58 63.7696 356.677 64.0327 356.78 64.29C356.814 64.3815 356.848 64.4788 356.888 64.5702C357.815 66.9 358.953 69.1397 360.289 71.2612C358.809 69.9916 357.384 68.6458 356.014 67.2237C353.899 65.025 351.95 62.6719 350.184 60.184C350.041 59.9895 349.898 59.7894 349.767 59.5892C349.498 59.2061 349.235 58.8229 348.978 58.434C348.703 58.0337 348.441 57.6163 348.183 57.2045C348.012 56.93 347.84 56.6498 347.675 56.3753C347.509 56.1122 347.355 55.8549 347.206 55.5918L346.76 54.8255H346.754V54.8312L346.126 55.4488C345.874 55.6948 345.623 55.9407 345.377 56.1865C337.695 63.9201 332.13 73.5011 329.218 84.0082L329.133 84.3228L329.047 84.6487C328.881 85.232 328.715 85.7982 328.538 86.3758V86.3815C328.367 86.9534 328.184 87.5253 327.989 88.0857C327.812 88.6175 327.629 89.1437 327.435 89.6698C327.372 89.8471 327.304 90.0243 327.229 90.2016C327.109 90.5448 326.978 90.8822 326.846 91.2253C326.783 91.3797 326.721 91.5398 326.658 91.6942C326.503 92.0717 326.349 92.4491 326.195 92.8208C326.172 92.878 326.143 92.9409 326.115 92.9981C326.069 93.1125 326.018 93.2268 325.972 93.3355C325.852 93.61 325.726 93.8902 325.606 94.1647C325.52 94.342 325.44 94.525 325.36 94.7023C325.326 94.7823 325.286 94.8624 325.252 94.9425C325.04 95.4 324.823 95.8517 324.594 96.2978C324.337 96.824 324.074 97.3501 323.794 97.8648C323.548 98.3451 323.291 98.8141 323.022 99.283C322.559 100.112 322.074 100.936 321.571 101.736C321.376 102.045 321.182 102.354 320.982 102.663C320.936 102.737 320.89 102.811 320.845 102.88C320.679 103.149 320.507 103.406 320.33 103.669C320.21 103.847 320.09 104.024 319.97 104.195C319.77 104.504 319.559 104.802 319.341 105.093C319.284 105.185 319.221 105.271 319.159 105.356C318.838 105.802 318.518 106.237 318.193 106.672C318.181 106.677 318.181 106.683 318.175 106.689C318.164 106.689 318.164 106.695 318.158 106.7C318.015 106.889 317.873 107.078 317.724 107.261C317.53 107.529 317.318 107.793 317.107 108.05C316.764 108.484 316.404 108.925 316.038 109.354C316.026 109.365 316.021 109.377 316.009 109.382C314.115 111.609 312.064 113.696 309.87 115.627C309.83 115.662 309.802 115.696 309.762 115.724C309.453 115.993 309.144 116.262 308.824 116.525C308.693 116.634 308.561 116.742 308.43 116.851C308.213 117.034 307.99 117.217 307.773 117.383C307.747 117.409 307.718 117.432 307.687 117.451C307.493 117.612 307.304 117.76 307.11 117.909C306.875 118.098 306.641 118.275 306.401 118.452C305.269 119.31 304.107 120.12 302.914 120.883C302.737 121.003 302.548 121.123 302.366 121.237C302.257 121.306 302.148 121.375 302.045 121.432C301.611 121.701 301.177 121.964 300.742 122.215C300.308 122.473 299.862 122.718 299.422 122.959C298.479 123.473 297.547 124.011 296.638 124.571C296.181 124.857 295.724 125.143 295.272 125.435C293.477 126.601 291.749 127.85 290.088 129.181C288.427 130.512 286.834 131.926 285.315 133.418C285.127 133.601 284.938 133.79 284.749 133.984C284.372 134.356 284.006 134.734 283.658 135.111C283.098 135.689 282.56 136.283 282.029 136.884C279.226 140.066 276.744 143.518 274.621 147.189C273.555 149.022 272.586 150.91 271.717 152.845C271.06 154.292 270.46 155.773 269.917 157.271C269.557 158.272 269.22 159.282 268.905 160.302C268.751 160.811 268.602 161.326 268.459 161.84C267.974 163.585 267.568 165.346 267.236 167.113C266.968 168.531 266.75 169.951 266.585 171.373C266.499 172.088 266.43 172.803 266.367 173.512C266.22 175.255 266.145 177 266.142 178.746C266.132 183.985 266.768 189.205 268.036 194.288C268.317 195.409 268.627 196.525 268.968 197.634C269.14 198.189 269.323 198.738 269.505 199.287C269.968 200.659 270.481 202.018 271.043 203.364C271.38 204.17 271.735 204.971 272.106 205.766C274.467 210.819 277.48 215.541 281.068 219.811C281.657 220.515 282.265 221.207 282.892 221.887C282.898 221.887 282.892 221.893 282.892 221.893C284.447 223.59 286.094 225.201 287.825 226.719H287.83C288.522 227.331 289.225 227.924 289.939 228.498C289.945 228.492 289.945 228.498 289.945 228.498C290.665 229.081 291.391 229.642 292.134 230.185C292.506 230.454 292.883 230.723 293.266 230.991C294.015 231.523 294.779 232.036 295.558 232.53H295.564C296.341 233.033 297.13 233.513 297.93 233.971C299.536 234.892 301.182 235.755 302.874 236.539L303.16 236.67L303.452 236.539C306.164 235.317 308.961 234.291 311.819 233.468C312.448 233.285 313.083 233.119 313.711 232.959C315.3 232.564 316.901 232.232 318.513 231.964C316.942 232.752 315.426 233.644 313.974 234.634C312.848 235.395 311.739 236.224 310.625 237.139C310.253 237.442 309.882 237.757 309.51 238.077L308.584 238.878L309.745 239.261C310.168 239.398 310.591 239.535 311.014 239.661C311.591 239.844 312.162 240.01 312.723 240.164C313.946 240.507 315.177 240.811 316.415 241.074C316.718 241.136 317.015 241.199 317.318 241.262C317.907 241.377 318.501 241.491 319.096 241.594C319.12 241.6 319.145 241.604 319.17 241.605C319.787 241.708 320.41 241.805 321.028 241.891C322.176 242.057 323.325 242.189 324.474 242.286C324.6 242.303 324.726 242.309 324.857 242.314C325.137 242.337 325.412 242.36 325.692 242.377C326.309 242.417 326.932 242.446 327.555 242.469C327.601 242.469 327.641 242.475 327.687 242.475C328.001 242.486 328.315 242.497 328.63 242.503C328.63 242.503 328.63 242.509 328.635 242.503C328.95 242.509 329.264 242.515 329.578 242.515H331.316C331.642 242.515 331.968 242.52 332.299 242.52C332.756 242.52 333.219 242.526 333.677 242.532C333.797 242.532 333.922 242.538 334.048 242.538C334.78 242.549 335.511 242.566 336.243 242.583C336.289 242.583 336.335 242.589 336.38 242.589C337.112 242.612 337.844 242.635 338.575 242.669C338.735 242.675 338.895 242.68 339.061 242.692C339.764 242.72 340.467 242.755 341.17 242.795C341.37 242.806 341.576 242.823 341.782 242.835C342.313 242.863 342.851 242.898 343.382 242.938C343.696 242.955 344.005 242.978 344.32 243.006C345.588 243.104 346.852 243.212 348.12 243.338C348.543 243.372 348.966 243.418 349.389 243.464C350.521 243.584 351.657 243.716 352.796 243.859C353.305 243.916 353.813 243.984 354.322 244.053C354.379 244.059 354.436 244.064 354.494 244.076C355.122 244.162 355.745 244.247 356.374 244.339C356.786 244.396 357.197 244.459 357.609 244.522C358.032 244.585 358.455 244.648 358.878 244.722C359.106 244.756 359.335 244.796 359.569 244.836C360.118 244.922 360.672 245.014 361.227 245.117C361.277 245.122 361.326 245.129 361.375 245.14C362.553 245.345 363.736 245.563 364.913 245.797C365.605 245.929 366.291 246.066 366.977 246.209C367.514 246.318 368.051 246.432 368.589 246.546C368.68 246.564 368.772 246.586 368.863 246.609C368.884 246.615 368.905 246.619 368.926 246.621C369.738 246.798 370.555 246.981 371.367 247.175C374.185 247.827 376.999 248.552 379.809 249.349C380.455 249.526 381.101 249.715 381.747 249.903C382.021 249.983 382.289 250.063 382.558 250.143C383.118 250.309 383.673 250.475 384.233 250.652C384.724 250.801 385.222 250.955 385.713 251.116C386.022 251.213 386.331 251.31 386.639 251.413C387.119 251.562 387.599 251.716 388.074 251.882C388.48 252.008 388.88 252.139 389.28 252.282C389.851 252.471 390.429 252.665 391 252.871C391.166 252.928 391.338 252.986 391.503 253.049C392.201 253.289 392.898 253.535 393.595 253.792C394.276 254.038 394.956 254.29 395.63 254.541C396.099 254.718 396.568 254.89 397.031 255.073C397.551 255.273 398.071 255.473 398.585 255.679C399.328 255.971 400.077 256.268 400.82 256.571C401.506 256.846 402.186 257.126 402.872 257.418C402.998 257.469 403.129 257.521 403.255 257.578C403.849 257.824 404.444 258.081 405.033 258.338C405.416 258.499 405.793 258.664 406.17 258.83C407.816 259.551 409.46 260.296 411.103 261.066H411.109C412.137 261.552 413.183 262.016 414.235 262.456C414.481 262.559 414.727 262.662 414.978 262.759C415.395 262.936 415.818 263.102 416.241 263.274C416.516 263.382 416.79 263.491 417.07 263.594C417.476 263.754 417.888 263.908 418.299 264.057C418.733 264.217 419.162 264.377 419.602 264.526C419.757 264.583 419.911 264.635 420.071 264.692C420.58 264.864 421.088 265.035 421.603 265.201C421.654 265.218 421.706 265.235 421.763 265.252C422.3 265.424 422.837 265.595 423.38 265.756C423.423 265.772 423.467 265.785 423.512 265.796C424.095 265.973 424.689 266.145 425.278 266.31C426.147 266.551 427.021 266.779 427.896 266.991C428.056 267.031 428.216 267.071 428.376 267.105C428.845 267.22 429.308 267.328 429.776 267.431C430.274 267.546 430.777 267.648 431.274 267.751C431.777 267.854 432.28 267.957 432.777 268.049C433.046 268.1 433.314 268.152 433.577 268.198L434.28 268.318C434.766 268.403 435.252 268.478 435.744 268.558C435.757 268.557 435.771 268.559 435.784 268.564C436.338 268.649 436.887 268.729 437.441 268.798C437.973 268.872 438.504 268.935 439.036 268.998C439.145 269.01 439.259 269.021 439.373 269.032C439.813 269.084 440.253 269.135 440.694 269.175C440.819 269.187 440.945 269.198 441.071 269.21C441.505 269.25 441.94 269.29 442.374 269.318C442.461 269.33 442.549 269.336 442.637 269.336C443.026 269.37 443.414 269.398 443.803 269.416C444.077 269.439 444.346 269.45 444.62 269.467C444.763 269.473 444.9 269.479 445.043 269.484C445.42 269.507 445.798 269.519 446.181 269.53C446.644 269.547 447.107 269.559 447.564 269.57C448.118 269.581 448.678 269.587 449.233 269.587H449.244C449.787 269.587 450.336 269.581 450.879 269.57H451.085L451.685 269.553C451.994 269.547 452.302 269.536 452.605 269.524C453.188 269.501 453.766 269.473 454.343 269.438C454.572 269.427 454.806 269.41 455.035 269.398C455.137 269.393 455.246 269.381 455.349 269.376C455.709 269.353 456.063 269.33 456.423 269.301C456.795 269.273 457.172 269.238 457.544 269.198C458.024 269.153 458.504 269.101 458.984 269.05C459.361 269.01 459.739 268.964 460.11 268.918C460.16 268.914 460.21 268.906 460.259 268.895C460.619 268.855 460.979 268.809 461.333 268.758C461.756 268.701 462.174 268.638 462.591 268.575C462.637 268.569 462.677 268.564 462.722 268.558C463.442 268.443 464.168 268.329 464.894 268.198C465.654 268.06 466.415 267.912 467.169 267.757C467.449 267.7 467.724 267.637 468.004 267.58C468.158 267.546 468.318 267.517 468.467 267.483C468.701 267.431 468.93 267.38 469.158 267.323C469.198 267.317 469.244 267.305 469.284 267.3C469.604 267.231 469.918 267.151 470.239 267.071C470.879 266.917 471.507 266.756 472.136 266.585C472.416 266.516 472.696 266.442 472.965 266.368C473.045 266.345 473.125 266.322 473.199 266.299C474.36 265.973 475.51 265.628 476.652 265.264C477.155 265.104 477.652 264.938 478.149 264.761C479.218 264.395 480.277 264.01 481.327 263.605C481.607 263.502 481.887 263.388 482.167 263.279C482.579 263.114 482.99 262.948 483.396 262.782C483.762 262.628 484.128 262.473 484.499 262.313C484.682 262.239 484.865 262.159 485.048 262.079C485.597 261.838 486.146 261.592 486.689 261.347C487.054 261.175 487.415 261.009 487.775 260.838C488.346 260.563 488.912 260.283 489.478 260.003C489.621 259.928 489.758 259.854 489.895 259.785C490.255 259.602 490.615 259.414 490.981 259.231C491.558 258.922 492.136 258.613 492.707 258.293C492.902 258.19 493.09 258.081 493.285 257.972C493.913 257.618 494.536 257.258 495.154 256.892C496.52 256.074 497.867 255.22 499.195 254.33C499.526 254.112 499.858 253.884 500.184 253.661C500.801 253.237 501.407 252.803 502.013 252.368C502.076 252.322 502.133 252.277 502.196 252.237C502.498 252.014 502.801 251.79 503.104 251.562C503.733 251.087 504.356 250.607 504.979 250.115C504.991 250.109 505.008 250.092 505.025 250.081C505.305 249.858 505.585 249.635 505.859 249.411C506.711 248.72 507.551 248.016 508.374 247.29C508.78 246.941 509.18 246.581 509.575 246.22C509.872 245.952 510.169 245.683 510.461 245.408C511.049 244.854 511.627 244.305 512.198 243.744C512.484 243.47 512.764 243.184 513.05 242.898C513.33 242.612 513.616 242.326 513.896 242.034C513.993 241.937 514.09 241.834 514.187 241.731C514.473 241.428 514.759 241.119 515.045 240.816C515.29 240.553 515.53 240.279 515.776 240.004C516.188 239.547 516.605 239.089 517.011 238.626C517.032 238.6 517.055 238.575 517.079 238.552C517.102 238.523 517.125 238.5 517.142 238.477H517.137C525.445 228.865 531.618 217.597 535.247 205.419C538.877 193.241 539.88 180.43 538.19 167.835C536.5 155.24 532.157 143.148 525.446 132.358C518.735 121.569 509.811 112.328 499.263 105.248L499.263 105.248Z" fill="#6C63FF"/>
<g opacity="0.15">
<path opacity="0.15" d="M383.571 37.7621C384.71 41.8569 386.425 45.7694 388.662 49.3825C384.916 46.1626 381.569 42.5053 378.692 38.4887C380.308 38.183 381.934 37.9407 383.571 37.7621Z" fill="black"/>
<path opacity="0.15" d="M327.798 101.09C323.567 103.4 319.612 106.182 316.007 109.382C322.094 102.181 326.542 93.7414 329.044 84.6488C329.074 84.5396 329.105 84.4296 329.134 84.3202L329.219 84.0107C332.226 73.1586 338.059 63.3001 346.123 55.4436L346.757 54.8256L347.204 55.5893C349.676 59.7948 352.635 63.6945 356.018 67.2079C350.834 81.8443 340.745 94.026 327.798 101.09Z" fill="black"/>
<path opacity="0.15" d="M357.593 62.1365L357.508 62.4459C357.479 62.5553 357.448 62.6653 357.418 62.7745C357.251 63.3763 357.074 63.9736 356.89 64.5683C355.082 59.8825 353.813 55.0062 353.106 50.0334L353.039 49.6114L353.386 49.3635C357.735 46.2365 362.459 43.6672 367.447 41.7156C362.969 47.8783 359.631 54.7948 357.593 62.1365Z" fill="black"/>
<path opacity="0.15" d="M299.424 122.964C303.168 120.914 306.672 118.453 309.871 115.626C303.48 123.071 298.899 131.896 296.486 141.409C294.074 150.922 293.896 160.864 295.966 170.457C298.037 180.05 302.299 189.033 308.42 196.703C314.541 204.372 322.353 210.519 331.245 214.662L331.534 214.795L331.823 214.665C336.626 212.494 341.69 210.956 346.889 210.088C343.644 211.742 340.619 213.796 337.886 216.203L336.961 217.003L338.121 217.386C339.122 217.718 340.124 218.022 341.097 218.293C346.818 219.887 352.732 220.679 358.67 220.645C385.649 220.472 412.838 226.713 439.481 239.193C444.05 241.33 448.789 243.083 453.649 244.432C474.829 250.333 497.439 248.21 517.153 238.472C506.039 251.332 491.506 260.774 475.243 265.701C458.979 270.628 441.653 270.838 425.275 266.307C420.415 264.957 415.676 263.205 411.107 261.068C384.464 248.587 357.275 242.346 330.296 242.519C324.358 242.553 318.444 241.761 312.724 240.167C311.75 239.897 310.748 239.592 309.747 239.261L308.587 238.877L309.512 238.077C312.245 235.67 315.27 233.616 318.515 231.962C313.316 232.83 308.252 234.368 303.449 236.539L303.161 236.67L302.872 236.536C292.193 231.563 283.106 223.719 276.624 213.88C270.142 204.04 266.52 192.592 266.162 180.813C265.805 169.034 268.725 157.387 274.599 147.172C280.472 136.957 289.067 128.576 299.424 122.964L299.424 122.964Z" fill="black"/>
</g>
</g>
<defs>
<clipPath id="clip0_39:68">
<rect width="539" height="455" fill="white"/>
</clipPath>
</defs>
</svg>
