<svg width="599" height="313" viewBox="0 0 599 313" fill="none" xmlns="http://www.w3.org/2000/svg">
<path d="M299.5 279.766C464.909 279.766 599 275.973 599 271.294C599 266.614 464.909 262.821 299.5 262.821C134.091 262.821 0 266.614 0 271.294C0 275.973 134.091 279.766 299.5 279.766Z" fill="#E6E6E6"/>
<path d="M459.112 179.49C458.734 179.495 458.356 179.5 457.973 179.5C457.589 179.5 457.211 179.495 456.833 179.49C436.784 179.029 422.253 166.361 425.952 153.069L434.971 120.644L437.251 112.44L477.659 113.137L480.114 121.163L489.781 152.755C493.874 166.12 479.342 179.029 459.112 179.49Z" fill="#3F3D56"/>
<path opacity="0.2" d="M480.114 121.163C473.224 125.146 465.408 127.198 457.473 127.107C449.537 127.015 441.77 124.785 434.971 120.644L437.251 112.44L477.659 113.137L480.114 121.163Z" fill="black"/>
<path d="M478.409 154.145C480.154 147.566 485.891 138.075 501.98 126.632C530.04 106.672 513.301 91.7064 512.576 91.0793C511.054 89.764 511.279 88.2871 513.098 87.7825C514.155 87.5688 515.245 87.5862 516.295 87.8333C517.344 88.0804 518.33 88.5516 519.185 89.2153C520.093 89.9752 541.054 108.077 509.391 130.597C480.895 150.867 486.954 164.098 487.023 164.225C487.787 165.64 486.563 166.773 484.286 166.757C482.009 166.742 479.543 165.584 478.777 164.17C478.616 163.871 476.783 160.27 478.409 154.145Z" fill="#3F3D56"/>
<path d="M439.323 184.216C438.71 184.216 438.104 184.094 437.538 183.857C436.973 183.62 436.459 183.272 436.026 182.835C435.593 182.397 435.249 181.877 435.015 181.305C434.781 180.733 434.66 180.12 434.66 179.5V159.068C434.66 157.817 435.151 156.618 436.026 155.734C436.9 154.849 438.086 154.353 439.323 154.353C440.559 154.353 441.745 154.849 442.619 155.734C443.494 156.618 443.985 157.817 443.985 159.068V179.5C443.985 180.12 443.864 180.733 443.63 181.305C443.396 181.877 443.052 182.397 442.619 182.835C442.187 183.272 441.673 183.62 441.107 183.857C440.541 184.094 439.935 184.216 439.323 184.216Z" fill="#3F3D56"/>
<path d="M443.411 135.708C443.155 136.27 442.792 136.776 442.343 137.197C441.893 137.618 441.366 137.945 440.792 138.16C440.218 138.374 439.607 138.473 438.996 138.449C438.384 138.425 437.783 138.279 437.226 138.021L418.872 129.48C417.75 128.957 416.879 128.004 416.451 126.832C416.023 125.66 416.073 124.363 416.589 123.228C417.106 122.093 418.047 121.211 419.206 120.777C420.364 120.343 421.646 120.392 422.769 120.913L441.124 129.454C441.68 129.712 442.18 130.079 442.596 130.534C443.012 130.988 443.336 131.521 443.548 132.102C443.761 132.682 443.858 133.3 443.834 133.919C443.811 134.537 443.667 135.145 443.411 135.708Z" fill="#3F3D56"/>
<path d="M472.535 135.708C472.791 136.27 473.154 136.776 473.603 137.197C474.052 137.618 474.579 137.945 475.153 138.16C475.728 138.374 476.338 138.473 476.95 138.449C477.562 138.425 478.163 138.279 478.719 138.021L497.074 129.48C498.197 128.958 499.069 128.005 499.498 126.832C499.927 125.659 499.877 124.362 499.361 123.226C498.844 122.09 497.902 121.208 496.742 120.774C495.582 120.341 494.3 120.391 493.176 120.913L474.822 129.454C474.265 129.712 473.765 130.079 473.349 130.534C472.933 130.988 472.61 131.521 472.397 132.102C472.185 132.682 472.088 133.3 472.111 133.919C472.135 134.537 472.279 135.145 472.535 135.708Z" fill="#3F3D56"/>
<path d="M476.622 184.216C477.235 184.216 477.841 184.094 478.407 183.857C478.972 183.62 479.486 183.272 479.919 182.835C480.352 182.397 480.696 181.877 480.93 181.305C481.164 180.733 481.285 180.12 481.285 179.5V159.068C481.285 157.817 480.794 156.618 479.919 155.734C479.045 154.85 477.859 154.353 476.622 154.353C475.386 154.353 474.2 154.85 473.326 155.734C472.451 156.618 471.96 157.817 471.96 159.068V179.5C471.96 180.12 472.081 180.733 472.315 181.305C472.549 181.877 472.893 182.397 473.326 182.835C473.759 183.272 474.272 183.62 474.838 183.857C475.404 184.094 476.01 184.216 476.622 184.216Z" fill="#3F3D56"/>
<path d="M496.107 51.936C496.51 51.4228 496.801 50.829 496.961 50.1938C497.12 49.5586 497.145 48.8965 497.033 48.251L494.495 33.1542L491.958 18.0574C491.821 17.2423 491.474 16.478 490.952 15.8414C490.431 15.2048 489.752 14.7182 488.986 14.4307C488.219 14.1431 487.391 14.0646 486.585 14.2032C485.779 14.3418 485.024 14.6925 484.394 15.22L472.735 24.9908L465.711 30.8774C461.026 30.035 456.238 29.9619 451.531 30.6611L444.764 24.9908L433.105 15.22C432.476 14.6925 431.72 14.3418 430.914 14.2032C430.108 14.0647 429.28 14.1431 428.514 14.4307C427.747 14.7182 427.069 15.2048 426.547 15.8414C426.025 16.478 425.679 17.2423 425.542 18.0575L423.004 33.1542L420.467 48.251C420.331 49.0444 420.401 49.8598 420.67 50.6178C416.321 57.3599 413.838 65.1572 413.479 73.1986C413.12 81.2401 414.898 89.232 418.628 96.3429C422.359 103.454 427.905 109.424 434.69 113.633C441.475 117.841 449.251 120.134 457.21 120.273C465.168 120.412 473.018 118.392 479.943 114.423C486.868 110.454 492.615 104.682 496.586 97.7052C500.556 90.7288 502.607 82.8038 502.522 74.7546C502.438 66.7053 500.223 58.826 496.107 51.936Z" fill="#3F3D56"/>
<path d="M431.937 21.4065C431.66 21.4069 431.386 21.4572 431.127 21.5551C430.746 21.6953 430.409 21.9356 430.15 22.2511C429.892 22.5667 429.721 22.9462 429.655 23.3507L426.578 41.6584C426.51 42.0619 426.549 42.4765 426.689 42.8603C426.83 43.244 427.068 43.5836 427.38 43.8448C427.692 44.1059 428.066 44.2796 428.465 44.3481C428.864 44.4167 429.274 44.3779 429.653 44.2355L446.87 37.7766C447.249 37.6343 447.585 37.3934 447.843 37.0783C448.101 36.7631 448.273 36.3848 448.341 35.9813C448.408 35.5778 448.37 35.1633 448.229 34.7796C448.089 34.3958 447.85 34.0563 447.539 33.7951L447.539 33.7946L433.4 21.946C432.99 21.5984 432.472 21.4075 431.937 21.4065Z" fill="#E6E6E6"/>
<path d="M485.563 21.4065C485.027 21.4075 484.51 21.5984 484.099 21.946L469.96 33.7951C469.649 34.0563 469.411 34.3958 469.27 34.7796C469.129 35.1633 469.091 35.5778 469.159 35.9813C469.226 36.3848 469.398 36.7631 469.656 37.0783C469.915 37.3934 470.25 37.6343 470.63 37.7766L487.846 44.2355C488.225 44.3779 488.635 44.4167 489.034 44.3481C489.433 44.2796 489.807 44.1059 490.119 43.8448C490.431 43.5836 490.669 43.244 490.81 42.8603C490.951 42.4765 490.989 42.0619 490.921 41.6584L487.844 23.3507C487.778 22.9462 487.608 22.5667 487.349 22.2511C487.09 21.9356 486.753 21.6953 486.372 21.5551C486.113 21.4572 485.839 21.4069 485.563 21.4065Z" fill="#E6E6E6"/>
<path d="M457.972 87.8162C461.406 87.8162 464.189 85.0014 464.189 81.5292C464.189 78.0571 461.406 75.2423 457.972 75.2423C454.539 75.2423 451.756 78.0571 451.756 81.5292C451.756 85.0014 454.539 87.8162 457.972 87.8162Z" fill="#E6E6E6"/>
<path d="M457.973 79.9575C460.261 79.9575 462.117 79.2538 462.117 78.3858C462.117 77.5177 460.261 76.8141 457.973 76.8141C455.684 76.8141 453.828 77.5177 453.828 78.3858C453.828 79.2538 455.684 79.9575 457.973 79.9575Z" fill="#3F3D56"/>
<path d="M454.864 85.1966H460.563V92.2694C460.563 92.6478 460.489 93.0225 460.346 93.3721C460.203 93.7217 459.993 94.0393 459.728 94.3069C459.464 94.5745 459.15 94.7867 458.804 94.9315C458.458 95.0764 458.088 95.1509 457.714 95.1509C456.958 95.1509 456.233 94.8473 455.699 94.3069C455.164 93.7665 454.864 93.0336 454.864 92.2694V85.1966H454.864Z" fill="#FF6584"/>
<path d="M458.319 13.8857C458.02 14.5124 457.73 15.1458 457.457 15.7922C454.242 23.3751 453.157 31.708 454.323 39.8739C454.907 39.0181 455.52 38.1264 456.143 37.225C454.808 29.3878 455.559 21.3324 458.319 13.8857Z" fill="#3F3D56"/>
<path d="M462.981 19.6487C462.682 20.2754 462.392 20.9088 462.119 21.5552C458.904 29.1381 457.82 37.471 458.986 45.6369C459.569 44.7811 460.182 43.8894 460.806 42.988C459.47 35.1508 460.221 27.0954 462.981 19.6487Z" fill="#3F3D56"/>
<path d="M477.356 132.788L476.699 124.341L476.042 115.893C476.006 115.437 475.853 114.999 475.597 114.621C475.34 114.244 474.991 113.942 474.582 113.745C474.174 113.548 473.722 113.463 473.271 113.499C472.82 113.535 472.386 113.69 472.013 113.949L465.107 118.748L460.065 122.253C459.743 121.871 459.342 121.565 458.892 121.355C458.441 121.145 457.951 121.036 457.454 121.036C456.958 121.036 456.468 121.145 456.017 121.355C455.567 121.565 455.166 121.871 454.844 122.253L449.801 118.748L442.896 113.949C442.523 113.69 442.089 113.535 441.638 113.499C441.187 113.463 440.735 113.548 440.327 113.745C439.918 113.942 439.568 114.244 439.312 114.621C439.056 114.998 438.902 115.437 438.867 115.893L438.21 124.341L437.553 132.788C437.518 133.244 437.602 133.702 437.797 134.115C437.991 134.528 438.29 134.881 438.663 135.141C439.036 135.4 439.47 135.555 439.921 135.591C440.372 135.627 440.824 135.542 441.232 135.345L448.795 131.696L455.008 128.699C455.328 129.026 455.709 129.286 456.129 129.464C456.549 129.641 456.999 129.733 457.454 129.733C457.91 129.733 458.36 129.641 458.78 129.464C459.2 129.286 459.581 129.026 459.901 128.699L466.114 131.696L473.677 135.345C474.085 135.542 474.537 135.627 474.988 135.591C475.439 135.555 475.873 135.4 476.246 135.141C476.619 134.881 476.918 134.528 477.112 134.115C477.307 133.702 477.391 133.244 477.356 132.788Z" fill="#6C63FF"/>
<path d="M449.684 76.2901C450.542 76.2901 451.238 75.5864 451.238 74.7184C451.238 73.8504 450.542 73.1467 449.684 73.1467C448.826 73.1467 448.13 73.8504 448.13 74.7184C448.13 75.5864 448.826 76.2901 449.684 76.2901Z" fill="#E6E6E6"/>
<path d="M466.262 76.2901C467.12 76.2901 467.816 75.5864 467.816 74.7184C467.816 73.8504 467.12 73.1467 466.262 73.1467C465.403 73.1467 464.708 73.8504 464.708 74.7184C464.708 75.5864 465.403 76.2901 466.262 76.2901Z" fill="#E6E6E6"/>
<path d="M157.267 165.604C157.645 165.609 158.023 165.615 158.406 165.615C158.79 165.615 159.168 165.609 159.546 165.604C179.595 165.143 194.126 152.475 190.427 139.183L181.408 106.759L179.128 98.5543L138.72 99.251L136.265 107.277L126.598 138.869C122.505 152.234 137.037 165.143 157.267 165.604Z" fill="#3F3D56"/>
<path opacity="0.2" d="M136.265 107.277C143.154 111.26 150.97 113.312 158.906 113.221C166.841 113.13 174.609 110.899 181.408 106.759L179.128 98.5543L138.72 99.251L136.265 107.277Z" fill="black"/>
<path d="M133.062 136.416C128.701 131.225 119.5 125.13 100.117 121.75C66.3104 115.852 75.107 95.0819 75.4972 94.2012C76.316 92.354 75.488 91.1164 73.6301 91.4476C72.5845 91.7119 71.6067 92.1991 70.7625 92.8767C69.9182 93.5543 69.227 94.4066 68.735 95.3765C68.2355 96.4565 56.9501 121.888 95.0963 128.54C129.428 134.529 129.55 149.11 129.541 149.255C129.45 150.864 131.036 151.358 133.087 150.359C135.138 149.36 136.877 147.246 136.971 145.637C136.99 145.297 137.123 141.248 133.062 136.416Z" fill="#3F3D56"/>
<path d="M177.056 170.33C177.668 170.33 178.275 170.208 178.84 169.971C179.406 169.734 179.92 169.387 180.353 168.949C180.786 168.511 181.129 167.991 181.364 167.419C181.598 166.847 181.718 166.234 181.718 165.615V145.182C181.717 143.933 181.225 142.735 180.351 141.852C179.477 140.969 178.292 140.473 177.056 140.473C175.82 140.473 174.635 140.969 173.761 141.852C172.887 142.735 172.395 143.933 172.394 145.182V165.615C172.394 166.234 172.514 166.847 172.748 167.419C172.983 167.991 173.326 168.511 173.759 168.949C174.192 169.387 174.706 169.734 175.272 169.971C175.837 170.208 176.444 170.33 177.056 170.33Z" fill="#3F3D56"/>
<path d="M172.968 121.822C173.224 122.385 173.587 122.891 174.036 123.311C174.485 123.732 175.012 124.059 175.586 124.274C176.161 124.489 176.771 124.587 177.383 124.563C177.995 124.539 178.596 124.394 179.152 124.135L197.507 115.595C198.064 115.336 198.565 114.97 198.981 114.515C199.398 114.061 199.722 113.528 199.935 112.947C200.148 112.366 200.245 111.748 200.222 111.129C200.198 110.51 200.054 109.901 199.798 109.338C199.542 108.775 199.179 108.269 198.729 107.848C198.279 107.427 197.752 107.1 197.177 106.886C196.603 106.671 195.992 106.573 195.379 106.598C194.767 106.622 194.166 106.768 193.609 107.028L175.255 115.568C174.698 115.827 174.198 116.194 173.782 116.648C173.366 117.102 173.043 117.635 172.83 118.216C172.618 118.797 172.521 119.414 172.544 120.033C172.568 120.652 172.712 121.26 172.968 121.822Z" fill="#3F3D56"/>
<path d="M143.845 121.822C143.589 122.385 143.226 122.891 142.776 123.311C142.327 123.732 141.8 124.059 141.226 124.274C140.652 124.489 140.041 124.587 139.429 124.563C138.818 124.539 138.216 124.394 137.66 124.135L119.306 115.595C118.749 115.336 118.248 114.97 117.831 114.515C117.414 114.061 117.09 113.528 116.878 112.947C116.665 112.366 116.567 111.748 116.591 111.129C116.614 110.51 116.758 109.901 117.014 109.338C117.27 108.775 117.634 108.269 118.083 107.848C118.533 107.427 119.06 107.1 119.635 106.886C120.21 106.671 120.821 106.573 121.433 106.598C122.045 106.622 122.647 106.768 123.203 107.028L141.558 115.568C142.114 115.827 142.614 116.194 143.03 116.648C143.446 117.102 143.77 117.635 143.982 118.216C144.194 118.797 144.291 119.414 144.268 120.033C144.244 120.652 144.1 121.26 143.845 121.822Z" fill="#3F3D56"/>
<path d="M139.756 170.33C139.144 170.33 138.538 170.208 137.972 169.971C137.406 169.734 136.892 169.387 136.459 168.949C136.026 168.511 135.683 167.991 135.449 167.419C135.214 166.847 135.094 166.234 135.094 165.615V145.182C135.095 143.933 135.587 142.735 136.461 141.852C137.336 140.969 138.521 140.473 139.756 140.473C140.992 140.473 142.177 140.969 143.051 141.852C143.925 142.735 144.417 143.933 144.419 145.182V165.615C144.419 166.234 144.298 166.847 144.064 167.419C143.829 167.991 143.486 168.511 143.053 168.949C142.62 169.387 142.106 169.734 141.54 169.971C140.975 170.208 140.368 170.33 139.756 170.33Z" fill="#3F3D56"/>
<path d="M195.709 36.7321C195.978 35.9742 196.048 35.1588 195.912 34.3653L193.375 19.2685L190.837 4.17179C190.7 3.35667 190.353 2.59238 189.832 1.95575C189.31 1.31911 188.632 0.832571 187.865 0.545007C187.099 0.257443 186.271 0.178991 185.465 0.31755C184.659 0.456109 183.903 0.806796 183.274 1.33435L171.614 11.1052L164.848 16.7755C160.141 16.0763 155.353 16.1493 150.668 16.9917L143.644 11.1051L131.985 1.33433C131.355 0.806773 130.599 0.456089 129.793 0.317529C128.987 0.178969 128.159 0.257412 127.393 0.544976C126.626 0.83254 125.948 1.31909 125.427 1.95573C124.905 2.59236 124.558 3.35665 124.421 4.17177L121.884 19.2685L119.346 34.3653C119.234 35.0108 119.259 35.6729 119.418 36.3081C119.578 36.9433 119.868 37.5371 120.271 38.0503C116.15 44.9419 113.931 52.8245 113.844 60.8777C113.757 68.931 115.806 76.8607 119.777 83.8416C123.749 90.8225 129.497 96.5994 136.425 100.571C143.353 104.543 151.207 106.565 159.17 106.425C167.132 106.286 174.912 103.992 181.7 99.7801C188.489 95.5686 194.037 89.5943 197.767 82.4788C201.498 75.3634 203.274 67.3668 202.912 59.3214C202.55 51.2759 200.063 43.4756 195.709 36.7321H195.709Z" fill="#3F3D56"/>
<path d="M182.979 8.06033L168.84 19.9089L168.84 19.9094C168.528 20.1706 168.29 20.5101 168.149 20.8939C168.009 21.2776 167.97 21.6921 168.038 22.0956C168.106 22.4991 168.277 22.8774 168.536 23.1926C168.794 23.5077 169.13 23.7486 169.509 23.8909L186.725 30.3498C187.105 30.4922 187.515 30.531 187.914 30.4624C188.313 30.3938 188.687 30.2202 188.999 29.9591C189.31 29.6979 189.548 29.3583 189.689 28.9745C189.83 28.5908 189.868 28.1763 189.801 27.7727L186.723 9.465C186.658 9.06053 186.487 8.68101 186.228 8.36545C185.97 8.04988 185.633 7.80965 185.252 7.66944C184.993 7.57154 184.719 7.52121 184.442 7.52081C183.907 7.52182 183.389 7.71275 182.979 8.06033Z" fill="#E6E6E6"/>
<path d="M130.007 7.66944C129.626 7.80965 129.289 8.04987 129.03 8.36544C128.772 8.681 128.601 9.06053 128.535 9.465L125.458 27.7727C125.39 28.1763 125.428 28.5908 125.569 28.9745C125.71 29.3583 125.948 29.6979 126.26 29.9591C126.572 30.2202 126.946 30.3938 127.345 30.4624C127.744 30.531 128.154 30.4922 128.533 30.3498L145.749 23.8909C146.129 23.7486 146.465 23.5077 146.723 23.1926C146.981 22.8774 147.153 22.4991 147.22 22.0956C147.288 21.6921 147.25 21.2776 147.109 20.8939C146.968 20.5101 146.73 20.1706 146.419 19.9094L132.28 8.06033C131.87 7.71275 131.352 7.52182 130.816 7.52081C130.54 7.52121 130.266 7.57155 130.007 7.66944Z" fill="#E6E6E6"/>
<path d="M158.406 73.9305C161.839 73.9305 164.623 71.1158 164.623 67.6436C164.623 64.1714 161.839 61.3567 158.406 61.3567C154.973 61.3567 152.189 64.1714 152.189 67.6436C152.189 71.1158 154.973 73.9305 158.406 73.9305Z" fill="#E6E6E6"/>
<path d="M158.406 66.0719C160.695 66.0719 162.551 65.3682 162.551 64.5001C162.551 63.6321 160.695 62.9284 158.406 62.9284C156.117 62.9284 154.262 63.6321 154.262 64.5001C154.262 65.3682 156.117 66.0719 158.406 66.0719Z" fill="#3F3D56"/>
<path d="M158.665 81.2653C158.291 81.2653 157.921 81.1907 157.575 81.0459C157.229 80.9011 156.915 80.6889 156.651 80.4213C156.386 80.1537 156.176 79.836 156.033 79.4864C155.89 79.1368 155.816 78.7621 155.816 78.3837V71.311H161.515V78.3837C161.515 78.7621 161.441 79.1368 161.298 79.4864C161.155 79.836 160.945 80.1537 160.68 80.4213C160.416 80.6889 160.101 80.9011 159.756 81.0459C159.41 81.1907 159.04 81.2653 158.665 81.2653Z" fill="#FF6584"/>
<path d="M158.061 0C158.359 0.626682 158.649 1.26014 158.922 1.90656C162.137 9.48945 163.222 17.8223 162.056 25.9882C161.472 25.1324 160.86 24.2407 160.236 23.3393C161.571 15.5021 160.82 7.44676 158.061 0Z" fill="#3F3D56"/>
<path d="M153.398 5.763C153.697 6.38969 153.987 7.02314 154.26 7.66956C157.475 15.2524 158.559 23.5853 157.393 31.7512C156.81 30.8954 156.197 30.0038 155.573 29.1023C156.909 21.2651 156.158 13.2098 153.398 5.763Z" fill="#3F3D56"/>
<path d="M139.023 27.2182L139.68 18.7708L140.337 10.3233C140.372 9.86718 140.526 9.42854 140.782 9.05147C141.038 8.6744 141.388 8.37217 141.796 8.17518C142.205 7.97818 142.657 7.89336 143.108 7.92923C143.559 7.96509 143.993 8.12039 144.366 8.37952L151.271 13.1785L156.314 16.6829C156.636 16.3013 157.036 15.9949 157.487 15.7847C157.938 15.5746 158.428 15.4659 158.924 15.4659C159.42 15.4659 159.911 15.5746 160.361 15.7847C160.812 15.9949 161.212 16.3013 161.535 16.6829L166.577 13.1785L173.483 8.37952C173.856 8.12039 174.289 7.96509 174.74 7.92923C175.191 7.89336 175.644 7.97818 176.052 8.17518C176.46 8.37217 176.81 8.6744 177.066 9.05147C177.323 9.42854 177.476 9.86718 177.512 10.3233L178.168 18.7708L178.825 27.2182C178.861 27.6743 178.777 28.1319 178.582 28.5448C178.387 28.9577 178.088 29.3115 177.716 29.5706C177.343 29.8297 176.909 29.985 176.458 30.0209C176.007 30.0568 175.555 29.9719 175.146 29.7749L167.584 26.1265L161.37 23.1287C161.051 23.4563 160.67 23.7164 160.25 23.894C159.83 24.0715 159.379 24.1629 158.924 24.1629C158.469 24.1629 158.018 24.0715 157.598 23.894C157.179 23.7164 156.798 23.4563 156.478 23.1287L150.264 26.1265L142.702 29.775C142.294 29.972 141.841 30.0568 141.39 30.0209C140.939 29.9851 140.506 29.8298 140.133 29.5707C139.76 29.3115 139.461 28.9577 139.266 28.5448C139.071 28.1318 138.988 27.6743 139.023 27.2182Z" fill="#6C63FF"/>
<path d="M165.141 60.8327C165.141 61.7008 165.836 60.8327 166.695 60.8327C167.553 60.8327 168.249 61.7008 168.249 60.8327C168.248 60.4165 168.084 60.0175 167.793 59.7235C167.501 59.4294 167.106 59.2643 166.695 59.2643C166.283 59.2643 165.888 59.4294 165.597 59.7235C165.306 60.0175 165.141 60.4165 165.141 60.8327Z" fill="#E6E6E6"/>
<path d="M151.672 60.8327C151.672 61.7008 150.976 60.8327 150.118 60.8327C149.259 60.8327 148.563 61.7008 148.563 60.8327C148.564 60.4165 148.728 60.0175 149.02 59.7235C149.311 59.4294 149.706 59.2643 150.118 59.2643C150.529 59.2643 150.924 59.4294 151.215 59.7235C151.507 60.0175 151.671 60.4165 151.672 60.8327Z" fill="#E6E6E6"/>
<path d="M324.1 179.503V169.513H274.706V170.137V179.503V260.052V270.043H284.585H324.1V260.052H284.585V179.503H324.1Z" fill="#3F3D56"/>
<path d="M348.179 169.513V270.043H397.573V169.513H348.179ZM387.694 260.052H358.058V179.503H387.694V260.052Z" fill="#6C63FF"/>
<path d="M211.11 260.052V170.137H201.231V260.052V270.043H211.11H250.626V260.052H211.11Z" fill="#6C63FF"/>
<path d="M179.004 179.503V169.513H129.61V170.137V179.503V214.47V224.461V260.052V270.043H139.489H179.004V260.052H139.489V224.461H179.004V214.47H139.489V179.503H179.004Z" fill="#3F3D56"/>
<path d="M565.513 179.503V169.513H516.119V170.137V179.503V214.47V224.461V260.052V270.043H525.998H565.513V260.052H525.998V224.461H565.513V214.47H525.998V179.503H565.513Z" fill="#6C63FF"/>
<path d="M96.2693 170.137V252.707L70.222 226.366L70.1628 226.427L70.1075 226.371L43.4795 253.3V169.825H33.6006V269.731H43.4795V267.429L70.1675 240.439L96.2693 266.837V270.043H106.148V170.137H96.2693Z" fill="#3F3D56"/>
<path d="M483.396 170.137V172.439L456.708 199.429L430.606 173.032V169.825H420.727V269.731H430.606V187.16L456.653 213.502L456.713 213.442L456.767 213.497L483.396 186.568V270.043H493.274V170.137H483.396Z" fill="#3F3D56"/>
<path d="M225.752 108.594C229.1 108.594 231.815 105.848 231.815 102.462C231.815 99.0749 229.1 96.3295 225.752 96.3295C222.403 96.3295 219.688 99.0749 219.688 102.462C219.688 105.848 222.403 108.594 225.752 108.594Z" fill="#6C63FF"/>
<path d="M76.1827 176.729C79.5316 176.729 82.2463 173.984 82.2463 170.597C82.2463 167.21 79.5316 164.465 76.1827 164.465C72.8339 164.465 70.1191 167.21 70.1191 170.597C70.1191 173.984 72.8339 176.729 76.1827 176.729Z" fill="#6C63FF"/>
<path d="M196.108 313C199.456 313 202.171 310.255 202.171 306.868C202.171 303.481 199.456 300.736 196.108 300.736C192.759 300.736 190.044 303.481 190.044 306.868C190.044 310.255 192.759 313 196.108 313Z" fill="#6C63FF"/>
<path d="M348.371 126.99C351.72 126.99 354.435 124.245 354.435 120.858C354.435 117.471 351.72 114.726 348.371 114.726C345.022 114.726 342.308 117.471 342.308 120.858C342.308 124.245 345.022 126.99 348.371 126.99Z" fill="#6C63FF"/>
<path d="M526.91 307.549C530.259 307.549 532.974 304.804 532.974 301.417C532.974 298.03 530.259 295.285 526.91 295.285C523.561 295.285 520.847 298.03 520.847 301.417C520.847 304.804 523.561 307.549 526.91 307.549Z" fill="#6C63FF"/>
<path d="M532.974 146.75C536.323 146.75 539.038 144.004 539.038 140.617C539.038 137.231 536.323 134.485 532.974 134.485C529.625 134.485 526.911 137.231 526.911 140.617C526.911 144.004 529.625 146.75 532.974 146.75Z" fill="#6C63FF"/>
<path d="M456.169 257.129C459.517 257.129 462.232 254.384 462.232 250.997C462.232 247.61 459.517 244.865 456.169 244.865C452.82 244.865 450.105 247.61 450.105 250.997C450.105 254.384 452.82 257.129 456.169 257.129Z" fill="#6C63FF"/>
</svg>
